<?xml version="1.0" encoding="UTF-8"?>
<svg width="60px" height="51px" viewBox="0 0 60 51" version="1.1" xmlns="http://www.w3.org/2000/svg" xmlns:xlink="http://www.w3.org/1999/xlink">
    <!-- Generator: Sketch 41.1 (35376) - http://www.bohemiancoding.com/sketch -->
    <title>Group 4</title>
    <desc>Created with Sketch.</desc>
    <defs></defs>
    <g id="Page-1" stroke="none" stroke-width="1" fill="none" fill-rule="evenodd">
        <g id="Group-4" fill="#000000">
            <path d="M22.8571701,45.7143402 C22.8571701,43.2143372 20.7857391,41.1429062 18.2857361,41.1429062 C15.7857331,41.1429062 13.7143021,43.2143372 13.7143021,45.7143402 C13.7143021,48.2143432 15.7857331,50.2857742 18.2857361,50.2857742 C20.7857391,50.2857742 22.8571701,48.2143432 22.8571701,45.7143402 Z M54.8572083,45.7143402 C54.8572083,43.2143372 52.7857772,41.1429062 50.2857742,41.1429062 C47.7857713,41.1429062 45.7143402,43.2143372 45.7143402,45.7143402 C45.7143402,48.2143432 47.7857713,50.2857742 50.2857742,50.2857742 C52.7857772,50.2857742 54.8572083,48.2143432 54.8572083,45.7143402 Z M59.4286423,6.85715103 C59.4286423,5.60714954 58.3929268,4.57143402 57.1429253,4.57143402 L14.250017,4.57143402 C13.8928737,2.85714626 13.821445,0 11.4285851,0 L2.28571701,0 C1.03571552,0 0,1.03571552 0,2.28571701 C0,3.5357185 1.03571552,4.57143402 2.28571701,4.57143402 L9.57143998,4.57143402 L15.8928761,33.9643262 C15.3214468,35.0714704 13.7143021,37.750045 13.7143021,38.8571892 C13.7143021,40.1071907 14.7500176,41.1429062 16.0000191,41.1429062 L52.5714912,41.1429062 C53.8214927,41.1429062 54.8572083,40.1071907 54.8572083,38.8571892 C54.8572083,37.6071877 53.8214927,36.5714722 52.5714912,36.5714722 L19.7143092,36.5714722 C20.0714525,35.8571856 20.5714531,35.1071847 20.5714531,34.2857552 C20.5714531,33.4286113 20.2857385,32.6071817 20.1071668,31.7857522 L57.3929256,27.4286041 C58.5357841,27.2857468 59.4286423,26.2857456 59.4286423,25.1428871 L59.4286423,6.85715103 Z" id="ïº"></path>
        </g>
    </g>
</svg>