<?xml version="1.0" encoding="UTF-8"?>
<svg width="64px" height="56px" viewBox="0 0 64 56" version="1.1" xmlns="http://www.w3.org/2000/svg" xmlns:xlink="http://www.w3.org/1999/xlink">
    <!-- Generator: Sketch 41.1 (35376) - http://www.bohemiancoding.com/sketch -->
    <title>Group 3</title>
    <desc>Created with Sketch.</desc>
    <defs></defs>
    <g id="Page-1" stroke="none" stroke-width="1" fill="none" fill-rule="evenodd">
        <g id="Group-3" fill="#000000">
            <path d="M64.0000763,23.1428299 C64.0000763,10.4999577 49.6786307,0.28565979 32.0000381,0.28565979 C14.3214456,0.28565979 0,10.535672 0,23.1428299 C0,30.3928385 4.71429133,36.857132 12.071443,41.0357084 C10.3928695,47.0000012 7.8214379,49.1428609 5.57143521,51.6785782 C5.03572029,52.3214361 4.42857671,52.857151 4.60714835,53.7500092 L4.60714835,53.7857236 C4.78571999,54.6428674 5.53572088,55.2142967 6.32143611,55.142868 C7.71429491,54.9642964 9.10715371,54.7142961 10.3928695,54.3571528 C16.5714483,52.7857224 22.1428835,49.8571475 26.8214605,45.7142854 C28.500034,45.892857 30.2500361,46 32.0000381,46 C49.6786307,46 64.0000763,35.7857021 64.0000763,23.1428299 Z" id="ïµ"></path>
        </g>
    </g>
</svg>