<?xml version="1.0" encoding="UTF-8"?>
<svg width="60px" height="65px" viewBox="0 0 60 65" version="1.1" xmlns="http://www.w3.org/2000/svg" xmlns:xlink="http://www.w3.org/1999/xlink">
    <!-- Generator: Sketch 41.1 (35376) - http://www.bohemiancoding.com/sketch -->
    <title>Group</title>
    <desc>Created with Sketch.</desc>
    <defs></defs>
    <g id="Page-1" stroke="none" stroke-width="1" fill="none" fill-rule="evenodd">
        <g id="Group" fill="#000000">
            <path d="M4.57143402,59.571434 L4.57143402,22.9999619 L54.8572083,22.9999619 L54.8572083,59.571434 L4.57143402,59.571434 Z M18.2857361,16.1428108 C18.2857361,16.7856687 17.7857355,17.2856693 17.1428776,17.2856693 L14.8571606,17.2856693 C14.2143027,17.2856693 13.7143021,16.7856687 13.7143021,16.1428108 L13.7143021,5.85708427 C13.7143021,5.21422637 14.2143027,4.71422577 14.8571606,4.71422577 L17.1428776,4.71422577 C17.7857355,4.71422577 18.2857361,5.21422637 18.2857361,5.85708427 L18.2857361,16.1428108 Z M45.7143402,16.1428108 C45.7143402,16.7856687 45.2143396,17.2856693 44.5714817,17.2856693 L42.2857647,17.2856693 C41.6429068,17.2856693 41.1429062,16.7856687 41.1429062,16.1428108 L41.1429062,5.85708427 C41.1429062,5.21422637 41.6429068,4.71422577 42.2857647,4.71422577 L44.5714817,4.71422577 C45.2143396,4.71422577 45.7143402,5.21422637 45.7143402,5.85708427 L45.7143402,16.1428108 Z M59.4286423,13.8570938 C59.4286423,11.3570908 57.3572112,9.28565979 54.8572083,9.28565979 L50.2857742,9.28565979 L50.2857742,5.85708427 C50.2857742,2.71422338 47.7143426,0.142791748 44.5714817,0.142791748 L42.2857647,0.142791748 C39.1429038,0.142791748 36.5714722,2.71422338 36.5714722,5.85708427 L36.5714722,9.28565979 L22.8571701,9.28565979 L22.8571701,5.85708427 C22.8571701,2.71422338 20.2857385,0.142791748 17.1428776,0.142791748 L14.8571606,0.142791748 C11.7142997,0.142791748 9.14286804,2.71422338 9.14286804,5.85708427 L9.14286804,9.28565979 L4.57143402,9.28565979 C2.07143104,9.28565979 0,11.3570908 0,13.8570938 L0,59.571434 C0,62.071437 2.07143104,64.142868 4.57143402,64.142868 L54.8572083,64.142868 C57.3572112,64.142868 59.4286423,62.071437 59.4286423,59.571434 L59.4286423,13.8570938 Z" id=""></path>
        </g>
    </g>
</svg>