<?xml version="1.0" encoding="UTF-8"?>
<svg width="57px" height="53px" viewBox="0 0 57 53" version="1.1" xmlns="http://www.w3.org/2000/svg" xmlns:xlink="http://www.w3.org/1999/xlink">
    <!-- Generator: Sketch 41.1 (35376) - http://www.bohemiancoding.com/sketch -->
    <title>up</title>
    <desc>Created with Sketch.</desc>
    <defs></defs>
    <g id="Page-1" stroke="none" stroke-width="1" fill="none" fill-rule="evenodd">
        <g id="up" transform="translate(28.500000, 26.500000) rotate(-180.000000) translate(-28.500000, -26.500000) translate(0.000000, 0.000000)" fill="#000000">
            <g id="Page-1">
                <g id="Group-2">
                    <path d="M56.5357829,27.8214045 C56.5357829,26.6071174 56.0357823,25.4285445 55.2143527,24.5714006 L31.964325,1.32137293 C31.1071811,0.464229047 29.9286083,-5.7220459e-05 28.7143211,-5.7220459e-05 C27.500034,-5.7220459e-05 26.3214611,0.464229047 25.5000316,1.32137293 L2.25000387,24.5714006 C1.39286,25.4285445 0.892859399,26.6071174 0.892859399,27.8214045 C0.892859399,29.0356917 1.39286,30.1785502 2.25000387,31.0356941 L4.9285785,33.7142687 C5.75000805,34.5714126 6.92858088,35.0714132 8.14286804,35.0714132 C9.3571552,35.0714132 10.535728,34.5714126 11.3571576,33.7142687 L21.8571701,23.2499705 L21.8571701,48.3928576 C21.8571701,50.9642892 24.0000298,52.571434 26.4286041,52.571434 L31.0000381,52.571434 C33.4286125,52.571434 35.5714722,50.9642892 35.5714722,48.3928576 L35.5714722,23.2499705 L46.0714847,33.7142687 C46.8929142,34.5714126 48.0714871,35.0714132 49.2857742,35.0714132 C50.5000614,35.0714132 51.6786342,34.5714126 52.5357781,33.7142687 L55.2143527,31.0356941 C56.0357823,30.1785502 56.5357829,29.0356917 56.5357829,27.8214045 Z" id="ï¢"></path>
                </g>
            </g>
        </g>
    </g>
</svg>