<?xml version="1.0" encoding="UTF-8"?>
<svg width="55px" height="56px" viewBox="0 0 55 56" version="1.1" xmlns="http://www.w3.org/2000/svg" xmlns:xlink="http://www.w3.org/1999/xlink">
    <!-- Generator: Sketch 41.1 (35376) - http://www.bohemiancoding.com/sketch -->
    <title>Group 2</title>
    <desc>Created with Sketch.</desc>
    <defs></defs>
    <g id="Page-1" stroke="none" stroke-width="1" fill="none" fill-rule="evenodd">
        <g id="Group-2" transform="translate(-1.000000, 0.000000)" fill="#000000">
            <path d="M37.5714722,28.1428299 C37.5714722,33.1785502 33.4643244,37.2856979 28.4286041,37.2856979 C23.3928838,37.2856979 19.2857361,33.1785502 19.2857361,28.1428299 C19.2857361,23.1071096 23.3928838,18.9999619 28.4286041,18.9999619 C33.4643244,18.9999619 37.5714722,23.1071096 37.5714722,28.1428299 Z M42.5000495,28.1428299 C42.5000495,20.3571063 36.2143277,14.0713845 28.4286041,14.0713845 C20.6428806,14.0713845 14.3571588,20.3571063 14.3571588,28.1428299 C14.3571588,35.9285535 20.6428806,42.2142752 28.4286041,42.2142752 C36.2143277,42.2142752 42.5000495,35.9285535 42.5000495,28.1428299 Z M46.3571969,13.4999553 C46.3571969,11.6785246 44.8929095,10.2142371 43.0714787,10.2142371 C41.250048,10.2142371 39.7857605,11.6785246 39.7857605,13.4999553 C39.7857605,15.321386 41.250048,16.7856735 43.0714787,16.7856735 C44.8929095,16.7856735 46.3571969,15.321386 46.3571969,13.4999553 Z M28.4286041,5.64280307 C32.4286089,5.64280307 41.0000477,5.32137412 44.6071948,6.74994725 C45.8571963,7.24994785 46.7857689,7.85709143 47.7500557,8.82137829 C48.7143426,9.78566515 49.3214862,10.7142377 49.8214868,11.9642392 C51.2500599,15.5713863 50.9286309,24.1428251 50.9286309,28.1428299 C50.9286309,32.1428347 51.2500599,40.7142735 49.8214868,44.3214206 C49.3214862,45.5714221 48.7143426,46.4999946 47.7500557,47.4642815 C46.7857689,48.4285684 45.8571963,49.0357119 44.6071948,49.5357125 C41.0000477,50.9642857 32.4286089,50.6428567 28.4286041,50.6428567 C24.4285994,50.6428567 15.8571606,50.9642857 12.2500134,49.5357125 C11.0000119,49.0357119 10.0714394,48.4285684 9.10715252,47.4642815 C8.14286566,46.4999946 7.53572208,45.5714221 7.03572148,44.3214206 C5.60714835,40.7142735 5.9285773,32.1428347 5.9285773,28.1428299 C5.9285773,24.1428251 5.60714835,15.5713863 7.03572148,11.9642392 C7.53572208,10.7142377 8.14286566,9.78566515 9.10715252,8.82137829 C10.0714394,7.85709143 11.0000119,7.24994785 12.2500134,6.74994725 C15.8571606,5.32137412 24.4285994,5.64280307 28.4286041,5.64280307 Z M55.8572083,28.1428299 C55.8572083,24.3571111 55.8929226,20.6071066 55.6786366,16.8213878 C55.4643506,12.4285254 54.4643494,8.53566366 51.2500599,5.32137412 C48.0357704,2.10708457 44.1429086,1.10708338 39.7500462,0.89279741 C35.9643274,0.678511441 32.2143229,0.714225769 28.4286041,0.714225769 C24.6428853,0.714225769 20.8928809,0.678511441 17.1071621,0.89279741 C12.7142997,1.10708338 8.8214379,2.10708457 5.60714835,5.32137412 C2.3928588,8.53566366 1.39285761,12.4285254 1.17857164,16.8213878 C0.964285672,20.6071066 1,24.3571111 1,28.1428299 C1,31.9285487 0.964285672,35.6785532 1.17857164,39.464272 C1.39285761,43.8571343 2.3928588,47.7499961 5.60714835,50.9642857 C8.8214379,54.1785752 12.7142997,55.1785764 17.1071621,55.3928624 C20.8928809,55.6071483 24.6428853,55.571434 28.4286041,55.571434 C32.2143229,55.571434 35.9643274,55.6071483 39.7500462,55.3928624 C44.1429086,55.1785764 48.0357704,54.1785752 51.2500599,50.9642857 C54.4643494,47.7499961 55.4643506,43.8571343 55.6786366,39.464272 C55.8929226,35.6785532 55.8572083,31.9285487 55.8572083,28.1428299 Z" id=""></path>
        </g>
    </g>
</svg>