<?xml version="1.0" encoding="UTF-8"?>
<svg width="319px" height="57px" viewBox="0 0 319 57" version="1.1" xmlns="http://www.w3.org/2000/svg" xmlns:xlink="http://www.w3.org/1999/xlink">
    <!-- Generator: Sketch 41.1 (35376) - http://www.bohemiancoding.com/sketch -->
    <title>Group 2</title>
    <desc>Created with Sketch.</desc>
    <defs></defs>
    <g id="Page-1" stroke="none" stroke-width="1" fill="none" fill-rule="evenodd">
        <g id="Group-2" fill="#000000">
            <path d="M59.4286423,21.9643119 C59.4286423,20.892882 58.2857838,20.4643101 57.4286399,20.3214528 L39.5000471,17.7143068 L31.4643232,1.46428746 C31.1428943,0.785715222 30.5357507,0 29.7143211,0 C28.8928916,0 28.285748,0.785715222 27.9643191,1.46428746 L19.9285952,17.7143068 L2.00000238,20.3214528 C1.10714418,20.4643101 0,20.892882 0,21.9643119 C0,22.6071698 0.464286268,23.2143134 0.892858207,23.6785997 L13.8928737,36.3214719 L10.8214415,54.178636 C10.7857271,54.4286363 10.7500128,54.6429223 10.7500128,54.8929226 C10.7500128,55.8214951 11.2142991,56.678639 12.2500146,56.678639 C12.7500152,56.678639 13.2143015,56.5000674 13.6785877,56.2500671 L29.7143211,47.8214856 L45.7500545,56.2500671 C46.1786265,56.5000674 46.6786271,56.678639 47.1786277,56.678639 C48.2143432,56.678639 48.6429151,55.8214951 48.6429151,54.8929226 C48.6429151,54.6429223 48.6429151,54.4286363 48.6072008,54.178636 L45.5357686,36.3214719 L58.5000697,23.6785997 C58.964356,23.2143134 59.4286423,22.6071698 59.4286423,21.9643119 Z" id=""></path>
            <path d="M99,55.40625 L99,9.15625 L105.5625,9.15625 L105.5625,50.5 L126.375,50.5 L126.375,55.40625 L99,55.40625 Z M168,56.5625 C161.583301,56.5625 156.421895,54.3385639 152.515625,49.890625 C148.609355,45.4426861 146.65625,39.5625366 146.65625,32.25 C146.65625,24.8957966 148.619772,19.015647 152.546875,14.609375 C156.473978,10.203103 161.718717,8 168.28125,8 C174.822949,8 180.06248,10.1978947 184,14.59375 C187.93752,18.9896053 189.90625,24.85413 189.90625,32.1875 C189.90625,39.6667041 187.93752,45.5989364 184,49.984375 C180.06248,54.3698136 174.7292,56.5625 168,56.5625 Z M168.09375,51.65625 C172.82294,51.65625 176.479154,49.953142 179.0625,46.546875 C181.645846,43.140608 182.9375,38.3333644 182.9375,32.125 C182.9375,26.1041366 181.640638,21.3958503 179.046875,18 C176.453112,14.6041497 172.864606,12.90625 168.28125,12.90625 C163.67706,12.90625 160.083346,14.609358 157.5,18.015625 C154.916654,21.421892 153.625,26.1562197 153.625,32.21875 C153.625,38.2604469 154.906237,43.0103994 157.46875,46.46875 C160.031263,49.9271006 163.572894,51.65625 168.09375,51.65625 Z M250.09375,54.15625 C244.489555,55.7604247 239.604187,56.5625 235.4375,56.5625 C228.083297,56.5625 222.442728,54.4687709 218.515625,50.28125 C214.588522,46.0937291 212.625,40.0937891 212.625,32.28125 C212.625,24.614545 214.614563,18.651063 218.59375,14.390625 C222.572937,10.130187 228.156214,8 235.34375,8 C240.052107,8 244.947891,8.69790969 250.03125,10.09375 L250.03125,16.15625 C243.656218,13.9895725 238.77085,12.90625 235.375,12.90625 C230.374975,12.90625 226.494805,14.6041497 223.734375,18 C220.973945,21.3958503 219.59375,26.1770525 219.59375,32.34375 C219.59375,38.4479472 221.072902,43.1926914 224.03125,46.578125 C226.989598,49.9635586 231.13539,51.65625 236.46875,51.65625 C238.656261,51.65625 241.020821,51.2708372 243.5625,50.5 L243.5625,35.4375 L250.09375,35.4375 L250.09375,54.15625 Z M296.46875,56.5625 C290.052051,56.5625 284.890645,54.3385639 280.984375,49.890625 C277.078105,45.4426861 275.125,39.5625366 275.125,32.25 C275.125,24.8957966 277.088522,19.015647 281.015625,14.609375 C284.942728,10.203103 290.187467,8 296.75,8 C303.291699,8 308.53123,10.1978947 312.46875,14.59375 C316.40627,18.9896053 318.375,24.85413 318.375,32.1875 C318.375,39.6667041 316.40627,45.5989364 312.46875,49.984375 C308.53123,54.3698136 303.19795,56.5625 296.46875,56.5625 Z M296.5625,51.65625 C301.29169,51.65625 304.947904,49.953142 307.53125,46.546875 C310.114596,43.140608 311.40625,38.3333644 311.40625,32.125 C311.40625,26.1041366 310.109388,21.3958503 307.515625,18 C304.921862,14.6041497 301.333356,12.90625 296.75,12.90625 C292.14581,12.90625 288.552096,14.609358 285.96875,18.015625 C283.385404,21.421892 282.09375,26.1562197 282.09375,32.21875 C282.09375,38.2604469 283.374987,43.0103994 285.9375,46.46875 C288.500013,49.9271006 292.041644,51.65625 296.5625,51.65625 Z" id="L-O-G-O"></path>
        </g>
    </g>
</svg>