<?xml version="1.0" encoding="UTF-8"?>
<svg width="64px" height="51px" viewBox="0 0 64 51" version="1.1" xmlns="http://www.w3.org/2000/svg" xmlns:xlink="http://www.w3.org/1999/xlink">
    <!-- Generator: Sketch 41.1 (35376) - http://www.bohemiancoding.com/sketch -->
    <title>Group 5</title>
    <desc>Created with Sketch.</desc>
    <defs></defs>
    <g id="Page-1" stroke="none" stroke-width="1" fill="none" fill-rule="evenodd">
        <g id="Group-5" fill="#000000">
            <path d="M64.0000763,16.4999648 C62.9286464,17.6785377 61.7143593,18.7142532 60.4286435,19.6071114 C54.4643506,23.6428305 48.4643435,27.7142639 42.642908,31.9285547 C39.6429044,34.142843 35.9286143,36.857132 32.0357525,36.857132 L31.9643238,36.857132 C28.071462,36.857132 24.3571719,34.142843 21.3571683,31.9285547 C15.5357328,27.6785496 9.53572565,23.6428305 3.60714716,19.6071114 C2.28571701,18.7142532 1.07142985,17.6785377 0,16.4999648 L0,44.8571415 C0,48.0000024 2.57143164,50.571434 5.71429253,50.571434 L58.2857838,50.571434 C61.4286447,50.571434 64.0000763,48.0000024 64.0000763,44.8571415 L64.0000763,16.4999648 Z M64.0000763,5.99995232 C64.0000763,2.85709143 61.3929303,0.28565979 58.2857838,0.28565979 L5.71429253,0.28565979 C1.8928594,0.28565979 0,3.28566337 0,6.78566754 C0,10.0356714 3.60714716,14.0713905 6.14286447,15.7856783 C11.6785854,19.6428257 17.2857349,23.4999732 22.8214558,27.392835 C25.1428871,28.9999797 29.0714632,32.2856979 31.9643238,32.2856979 L32.0357525,32.2856979 C34.9286131,32.2856979 38.8571892,28.9999797 41.1786205,27.392835 C46.7143414,23.4999732 52.3214909,19.6428257 57.8929262,15.7856783 C61.035787,13.6071042 64.0000763,9.99995708 64.0000763,5.99995232 Z" id=""></path>
        </g>
    </g>
</svg>