<?xml version="1.0" encoding="UTF-8"?>
<svg width="38px" height="38px" viewBox="0 0 38 38" version="1.1" xmlns="http://www.w3.org/2000/svg" xmlns:xlink="http://www.w3.org/1999/xlink">
    <!-- Generator: Sketch 41.1 (35376) - http://www.bohemiancoding.com/sketch -->
    <title>Group</title>
    <desc>Created with Sketch.</desc>
    <defs></defs>
    <g id="Page-1" stroke="none" stroke-width="1" fill="none" fill-rule="evenodd">
        <g id="Group" fill="#000000">
            <path d="M38.0000453,30.4285469 C38.0000453,29.1785454 37.3850892,28.1428299 36.6429008,28.1428299 L1.35714447,28.1428299 C0.61495609,28.1428299 0,29.1785454 0,30.4285469 L0,34.9999809 C0,36.2499824 0.61495609,37.2856979 1.35714447,37.2856979 L36.6429008,37.2856979 C37.3850892,37.2856979 38.0000453,36.2499824 38.0000453,34.9999809 L38.0000453,30.4285469 Z M38.0000453,16.7142448 C38.0000453,15.4642434 37.3850892,14.4285278 36.6429008,14.4285278 L1.35714447,14.4285278 C0.61495609,14.4285278 0,15.4642434 0,16.7142448 L0,21.2856789 C0,22.5356804 0.61495609,23.5713959 1.35714447,23.5713959 L36.6429008,23.5713959 C37.3850892,23.5713959 38.0000453,22.5356804 38.0000453,21.2856789 L38.0000453,16.7142448 Z M38.0000453,2.99994278 C38.0000453,1.74994129 37.3850892,0.714225769 36.6429008,0.714225769 L1.35714447,0.714225769 C0.61495609,0.714225769 0,1.74994129 0,2.99994278 L0,7.5713768 C0,8.82137829 0.61495609,9.85709381 1.35714447,9.85709381 L36.6429008,9.85709381 C37.3850892,9.85709381 38.0000453,8.82137829 38.0000453,7.5713768 L38.0000453,2.99994278 Z" id=""></path>
        </g>
    </g>
</svg>