<?xml version="1.0" encoding="UTF-8"?>
<svg width="51px" height="51px" viewBox="0 0 51 51" version="1.1" xmlns="http://www.w3.org/2000/svg" xmlns:xlink="http://www.w3.org/1999/xlink">
    <!-- Generator: Sketch 41.1 (35376) - http://www.bohemiancoding.com/sketch -->
    <title>Group</title>
    <desc>Created with Sketch.</desc>
    <defs></defs>
    <g id="Page-1" stroke="none" stroke-width="1" fill="none" fill-rule="evenodd">
        <g id="Group" fill="#000000">
            <path d="M50.2857742,40.4285588 C50.2857742,40.1785585 50.2857742,39.9285582 50.1786312,39.6785579 C49.9286309,38.928557 48.1786289,38.1428418 47.4643423,37.7856985 C45.4286256,36.64284 43.3571945,35.5356959 41.3571922,34.357123 C40.4286196,33.7856938 39.2857611,32.7142639 38.1786169,32.7142639 C36.0000429,32.7142639 32.8214677,39.1785573 30.892894,39.1785573 C29.9286071,39.1785573 28.6786056,38.2856991 27.8214617,37.7856985 C21.321454,34.1785514 16.8214486,29.678546 13.2143015,23.1785383 C12.7143009,22.3213944 11.8214427,21.0713929 11.8214427,20.107106 C11.8214427,18.1785323 18.2857361,14.9999571 18.2857361,12.8213831 C18.2857361,11.7142389 17.2143062,10.5713804 16.642877,9.64280784 C15.4643041,7.64280546 14.35716,5.57137442 13.2143015,3.5356577 C12.8571582,2.82137114 12.071443,1.07136905 11.3214421,0.821368754 C11.0714418,0.714225769 10.8214415,0.714225769 10.5714412,0.714225769 C9.28572536,0.714225769 6.78572237,1.28565502 5.60714954,1.82136995 C3.85714746,2.57137084 2.71428895,4.57137322 1.82143074,6.178518 C0.678572237,8.28566337 0,10.4285231 0,12.8213831 C0,16.1428156 1.35714447,19.1428192 2.46428865,22.1785371 C3.25000387,24.3571111 4.21429074,26.4642565 5.4285779,28.4285445 C9.17858237,34.4999803 16.5000197,41.8214176 22.5714555,45.5714221 C24.5357435,46.7857093 26.6428889,47.7499961 28.8214629,48.5357113 C31.8571808,49.6428555 34.8571844,51 38.1786169,51 C40.5714769,51 42.7143366,50.3214278 44.821482,49.1785693 C46.4286268,48.2857111 48.4286292,47.1428525 49.1786301,45.3928505 C49.714345,44.2142776 50.2857742,41.7142746 50.2857742,40.4285588 Z" id=""></path>
        </g>
    </g>
</svg>