<?xml version="1.0" encoding="UTF-8"?>
<svg width="55px" height="56px" viewBox="0 0 55 56" version="1.1" xmlns="http://www.w3.org/2000/svg" xmlns:xlink="http://www.w3.org/1999/xlink">
    <!-- Generator: Sketch 41.1 (35376) - http://www.bohemiancoding.com/sketch -->
    <title>Group</title>
    <desc>Created with Sketch.</desc>
    <defs></defs>
    <g id="Page-1" stroke="none" stroke-width="1" fill="none" fill-rule="evenodd">
        <g id="Group" fill="#000000">
            <path d="M54.8572083,28.1428299 C54.8572083,12.9999547 42.5714793,0.714225769 27.4286041,0.714225769 C12.2857289,0.714225769 0,12.9999547 0,28.1428299 C0,39.3928433 6.75000805,49.0357119 16.428591,53.285717 C16.3571624,51.3571433 16.3928767,49.0357119 16.8928773,46.9642809 C16.8928773,46.9642809 17.4285922,44.7499925 20.4285958,32.0356917 C19.5357376,30.2856896 19.5357376,27.6785436 19.5357376,27.6785436 C19.5357376,23.6071102 21.8928832,20.5713923 24.8214582,20.5713923 C27.3214611,20.5713923 28.5357483,22.4642517 28.5357483,24.7142544 C28.5357483,27.2142574 26.9286035,30.9642618 26.107174,34.4285517 C25.4286017,37.3571266 27.5714614,39.7142723 30.4286077,39.7142723 C35.6428996,39.7142723 39.1429038,33.0356929 39.1429038,25.1428263 C39.1429038,19.1071048 35.0714704,14.6070995 27.7143188,14.6070995 C19.3928803,14.6070995 14.2143027,20.8213926 14.2143027,27.7499723 C14.2143027,30.1428323 14.9285892,31.8214057 16.0357334,33.1428359 C16.535734,33.7499794 16.6071627,33.9642654 16.428591,34.678552 C16.2857337,35.1785526 16.0000191,36.3928397 15.8571618,36.857126 C15.6785901,37.5714126 15.1071609,37.8214129 14.5000173,37.5714126 C10.6785842,35.9999821 8.89286774,31.7856914 8.89286774,27.0714 C8.89286774,19.2856765 15.4643041,9.92852247 28.4643196,9.92852247 C38.9643322,9.92852247 45.8571975,17.5356744 45.8571975,25.6428269 C45.8571975,36.4285541 39.8571904,44.4642779 31.0357513,44.4642779 C28.071462,44.4642779 25.2857444,42.8571332 24.3571719,41.0357024 C22.7500271,47.3571385 22.4285982,48.5714257 22.4285982,48.5714257 C21.8571689,50.678571 20.6785961,52.7857164 19.6428806,54.4285755 C22.1428835,55.1785764 24.7143152,55.571434 27.4286041,55.571434 C42.5714793,55.571434 54.8572083,43.2857051 54.8572083,28.1428299 Z" id=""></path>
        </g>
    </g>
</svg>