<?xml version="1.0" encoding="UTF-8"?>
<svg width="60px" height="61px" viewBox="0 0 60 61" version="1.1" xmlns="http://www.w3.org/2000/svg" xmlns:xlink="http://www.w3.org/1999/xlink">
    <!-- Generator: Sketch 41.1 (35376) - http://www.bohemiancoding.com/sketch -->
    <title>Group</title>
    <desc>Created with Sketch.</desc>
    <defs></defs>
    <g id="Page-1" stroke="none" stroke-width="1" fill="none" fill-rule="evenodd">
        <g id="Group" fill="#000000">
            <path d="M41.1429062,25.8571129 C41.1429062,34.678552 33.9643262,41.857132 25.1428871,41.857132 C16.321448,41.857132 9.14286804,34.678552 9.14286804,25.8571129 C9.14286804,17.0356738 16.321448,9.85709381 25.1428871,9.85709381 C33.9643262,9.85709381 41.1429062,17.0356738 41.1429062,25.8571129 Z M59.4286423,55.571434 C59.4286423,54.3571469 58.9286417,53.178574 58.1072121,52.3571445 L45.8571975,40.1071299 C48.7500581,35.9285535 50.2857742,30.9285475 50.2857742,25.8571129 C50.2857742,11.9642392 39.0357608,0.714225769 25.1428871,0.714225769 C11.2500134,0.714225769 0,11.9642392 0,25.8571129 C0,39.7499866 11.2500134,51 25.1428871,51 C30.2143217,51 35.2143277,49.4642839 39.3929041,46.5714233 L51.6429187,58.7857236 C52.4643483,59.6428674 53.6429211,60.142868 54.8572083,60.142868 C57.3572112,60.142868 59.4286423,58.071437 59.4286423,55.571434 Z" id=""></path>
        </g>
    </g>
</svg>