<?xml version="1.0" encoding="UTF-8"?>
<svg width="55px" height="56px" viewBox="0 0 55 56" version="1.1" xmlns="http://www.w3.org/2000/svg" xmlns:xlink="http://www.w3.org/1999/xlink">
    <!-- Generator: Sketch 41.1 (35376) - http://www.bohemiancoding.com/sketch -->
    <title>Group</title>
    <desc>Created with Sketch.</desc>
    <defs></defs>
    <g id="Page-1" stroke="none" stroke-width="1" fill="none" fill-rule="evenodd">
        <g id="Group" fill="#000000">
            <path d="M36.5714722,28.1428299 C36.5714722,33.1785502 32.4643244,37.2856979 27.4286041,37.2856979 C22.3928838,37.2856979 18.2857361,33.1785502 18.2857361,28.1428299 C18.2857361,23.1071096 22.3928838,18.9999619 27.4286041,18.9999619 C32.4643244,18.9999619 36.5714722,23.1071096 36.5714722,28.1428299 Z M54.8572083,24.2499681 C54.8572083,23.6428245 54.4286363,23.0713953 53.8214927,22.9642523 L47.2857707,21.9642511 C46.9286274,20.7856783 46.4286268,19.6071054 45.8214832,18.4642469 C47.0357704,16.7856735 48.3572005,15.2142431 49.5714877,13.571384 C49.7500593,13.3213837 49.8572023,13.0713834 49.8572023,12.7499544 C49.8572023,12.4642398 49.7857736,12.1785251 49.607202,11.9642392 C48.1072002,9.85709381 45.6071972,7.64280546 43.7143378,5.89280337 C43.4643375,5.6785174 43.1429086,5.53566009 42.8214796,5.53566009 C42.5000507,5.53566009 42.1786217,5.64280307 41.9643357,5.85708904 L36.8929011,9.67852217 C35.8571856,9.14280725 34.7857558,8.71423531 33.6786116,8.35709202 L32.6786104,1.78565562 C32.6071817,1.17851204 32.0357525,0.714225769 31.3928946,0.714225769 L23.4643137,0.714225769 C22.8214558,0.714225769 22.3214552,1.14279771 22.1785979,1.71422696 C21.6071686,3.85708666 21.3928826,6.178518 21.1428823,8.35709202 C20.0357382,8.71423531 18.928594,9.17852157 17.8928785,9.7142365 L12.9643012,5.89280337 C12.6785865,5.6785174 12.3571576,5.53566009 12.0357286,5.53566009 C10.8214415,5.53566009 6.00000715,10.749952 5.14286327,11.9285249 C4.96429163,12.1785251 4.82143432,12.4285254 4.82143432,12.7499544 C4.82143432,13.0713834 4.96429163,13.357098 5.1785776,13.6070983 C6.50000775,15.2142431 7.78572357,16.8213878 9.00001073,18.5356756 C8.42858148,19.6071054 7.96429521,20.6785353 7.60715193,21.8213938 L0.964286864,22.821395 C0.428571939,22.928538 0,23.5713959 0,24.1071108 L0,32.0356917 C0,32.6428353 0.428571939,33.2142645 1.03571552,33.3214075 L7.5714376,34.2856944 C7.92858088,35.4999815 8.42858148,36.6785544 9.03572506,37.8214129 C7.8214379,39.4999863 6.50000775,41.0714167 5.28572059,42.7142758 C5.10714895,42.9642761 5.00000596,43.2142764 5.00000596,43.5357054 C5.00000596,43.82142 5.07143462,44.1071346 5.25000626,44.3571349 C6.75000805,46.428566 9.25001103,48.6428543 11.1428704,50.3571421 C11.3928707,50.6071424 11.7142997,50.7499997 12.0357286,50.7499997 C12.3571576,50.7499997 12.6785865,50.6428567 12.9285868,50.4285707 L17.9643071,46.6071376 C19.0000226,47.1428525 20.0714525,47.5714245 21.1785967,47.9285678 L22.1785979,54.5000042 C22.2500265,55.1071478 22.8214558,55.571434 23.4643137,55.571434 L31.3928946,55.571434 C32.0357525,55.571434 32.5357531,55.1428621 32.6786104,54.5714328 C33.2500396,52.4285731 33.4643256,50.1071418 33.7143259,47.9285678 C34.8214701,47.5714245 35.9286143,47.1071382 36.9643298,46.5714233 L41.8929071,50.4285707 C42.1786217,50.6071424 42.5000507,50.7499997 42.8214796,50.7499997 C44.0357668,50.7499997 48.8572011,45.4999934 49.714345,44.3571349 C49.9286309,44.1071346 50.0357739,43.8571343 50.0357739,43.5357054 C50.0357739,43.2142764 49.8929166,42.8928475 49.6786307,42.6428472 C48.3572005,41.0357024 47.0714847,39.464272 45.8571975,37.7142699 C46.4286268,36.6785544 46.8571987,35.6071245 47.2500563,34.464266 L53.8572071,33.4642648 C54.4286363,33.3571218 54.8572083,32.7142639 54.8572083,32.178549 L54.8572083,24.2499681 Z" id=""></path>
        </g>
    </g>
</svg>