<?xml version="1.0" encoding="UTF-8"?>
<svg width="57px" height="46px" viewBox="0 0 57 46" version="1.1" xmlns="http://www.w3.org/2000/svg" xmlns:xlink="http://www.w3.org/1999/xlink">
    <!-- Generator: Sketch 41.1 (35376) - http://www.bohemiancoding.com/sketch -->
    <title>Group 3</title>
    <desc>Created with Sketch.</desc>
    <defs></defs>
    <g id="Page-1" stroke="none" stroke-width="1" fill="none" fill-rule="evenodd">
        <g id="Group-3" fill="#000000">
            <path d="M56.8572118,5.71423769 C54.7857808,6.6070959 52.5357781,7.24995381 50.2143468,7.4999541 C52.6072068,6.07138097 54.4286375,3.82137829 55.2857814,1.14280367 C53.071493,2.46423382 50.57149,3.42852068 47.9643441,3.92852128 C45.8571987,1.67851859 42.8571951,0.28565979 39.5357626,0.28565979 C33.1428978,0.28565979 28.0000346,5.46423739 28.0000346,11.8213878 C28.0000346,12.714246 28.1071776,13.6071042 28.2857492,14.4642481 C18.7143092,13.9642475 10.1785848,9.3928135 4.50000656,2.39280516 C3.50000536,4.10709292 2.92857611,6.07138097 2.92857611,8.21424067 C2.92857611,12.2142454 4.96429282,15.7499639 8.07143939,17.821395 C6.17857999,17.7499663 4.39286357,17.2142514 2.85714746,16.3571075 L2.85714746,16.4999648 C2.85714746,22.1071144 6.8214379,26.7499771 12.1071585,27.8214069 C11.1428716,28.0714072 10.1071561,28.2142645 9.07144058,28.2142645 C8.32143968,28.2142645 7.60715312,28.1428359 6.89286655,28.0356929 C8.35715401,32.6071269 12.6071591,35.9285594 17.6785937,36.0357024 C13.7143033,39.142849 8.75001162,40.9642797 3.35714805,40.9642797 C2.39286119,40.9642797 1.50000298,40.9285654 0.571430445,40.8214224 C5.67857939,44.1071406 11.7500152,46 18.2857373,46 C39.5000483,46 51.107205,28.4285505 51.107205,13.1785323 C51.107205,12.6785317 51.107205,12.1785311 51.0714906,11.6785305 C53.3214933,10.0356714 55.2857814,7.9999547 56.8572118,5.71423769 Z" id=""></path>
        </g>
    </g>
</svg>