<?xml version="1.0" encoding="UTF-8"?>
<svg width="60px" height="58px" viewBox="0 0 60 58" version="1.1" xmlns="http://www.w3.org/2000/svg" xmlns:xlink="http://www.w3.org/1999/xlink">
    <!-- Generator: Sketch 41.1 (35376) - http://www.bohemiancoding.com/sketch -->
    <title>Group</title>
    <desc>Created with Sketch.</desc>
    <defs></defs>
    <g id="Page-1" stroke="none" stroke-width="1" fill="none" fill-rule="evenodd">
        <g id="Group" fill="#000000">
            <path d="M45.7143402,50.714283 C45.7143402,51.9642845 44.6786247,53 43.4286232,53 C42.1786217,53 41.1429062,51.9642845 41.1429062,50.714283 C41.1429062,49.4642815 42.1786217,48.428566 43.4286232,48.428566 C44.6786247,48.428566 45.7143402,49.4642815 45.7143402,50.714283 Z M54.8572083,50.714283 C54.8572083,51.9642845 53.8214927,53 52.5714912,53 C51.3214898,53 50.2857742,51.9642845 50.2857742,50.714283 C50.2857742,49.4642815 51.3214898,48.428566 52.5714912,48.428566 C53.8214927,48.428566 54.8572083,49.4642815 54.8572083,50.714283 Z M59.4286423,42.7142735 C59.4286423,40.8214141 57.8929262,39.2856979 56.0000668,39.2856979 L40.7500486,39.2856979 C39.7857617,41.9285582 37.2500444,43.857132 34.2857552,43.857132 L25.1428871,43.857132 C22.1785979,43.857132 19.6428806,41.9285582 18.6785937,39.2856979 L3.42857552,39.2856979 C1.53571612,39.2856979 0,40.8214141 0,42.7142735 L0,54.1428585 C0,56.0357179 1.53571612,57.571434 3.42857552,57.571434 L56.0000668,57.571434 C57.8929262,57.571434 59.4286423,56.0357179 59.4286423,54.1428585 L59.4286423,42.7142735 Z M47.8214856,19.5713887 C48.1786289,18.7499592 48.0000572,17.749958 47.321485,17.1071001 L31.3214659,1.107081 C30.892894,0.642794728 30.2857504,0.428508759 29.7143211,0.428508759 C29.1428919,0.428508759 28.5357483,0.642794728 28.1071764,1.107081 L12.1071573,17.1071001 C11.4285851,17.749958 11.2500134,18.7499592 11.6071567,19.5713887 C11.9643,20.4285326 12.7857295,20.9999619 13.7143021,20.9999619 L22.8571701,20.9999619 L22.8571701,36.9999809 C22.8571701,38.2499824 23.8928856,39.2856979 25.1428871,39.2856979 L34.2857552,39.2856979 C35.5357566,39.2856979 36.5714722,38.2499824 36.5714722,36.9999809 L36.5714722,20.9999619 L45.7143402,20.9999619 C46.6429127,20.9999619 47.4643423,20.4285326 47.8214856,19.5713887 Z" id=""></path>
        </g>
    </g>
</svg>