<?xml version="1.0" encoding="UTF-8"?>
<svg width="51px" height="56px" viewBox="0 0 51 56" version="1.1" xmlns="http://www.w3.org/2000/svg" xmlns:xlink="http://www.w3.org/1999/xlink">
    <!-- Generator: Sketch 41.1 (35376) - http://www.bohemiancoding.com/sketch -->
    <title>Group 2</title>
    <desc>Created with Sketch.</desc>
    <defs></defs>
    <g id="Page-1" stroke="none" stroke-width="1" fill="none" fill-rule="evenodd">
        <g id="Group-2" fill="#000000">
            <path d="M50.2857742,46.321423 C50.2857742,38.2499848 48.3929148,25.8571129 37.9286166,25.8571129 C36.8214725,25.8571129 32.1428955,30.8214045 25.1428871,30.8214045 C18.1428788,30.8214045 13.4643018,25.8571129 12.3571576,25.8571129 C1.8928594,25.8571129 0,38.2499848 0,46.321423 C0,52.1071442 3.85714746,55.571434 9.53572565,55.571434 L40.7500486,55.571434 C46.4286268,55.571434 50.2857742,52.1071442 50.2857742,46.321423 Z M38.8571892,14.4285278 C38.8571892,6.85709023 32.7143247,0.714225769 25.1428871,0.714225769 C17.5714495,0.714225769 11.4285851,6.85709023 11.4285851,14.4285278 C11.4285851,21.9999654 17.5714495,28.1428299 25.1428871,28.1428299 C32.7143247,28.1428299 38.8571892,21.9999654 38.8571892,14.4285278 Z" id=""></path>
        </g>
    </g>
</svg>