<?xml version="1.0" encoding="UTF-8"?>
<svg width="54px" height="65px" viewBox="0 0 54 65" version="1.1" xmlns="http://www.w3.org/2000/svg" xmlns:xlink="http://www.w3.org/1999/xlink">
    <!-- Generator: Sketch 41.1 (35376) - http://www.bohemiancoding.com/sketch -->
    <title>Group</title>
    <desc>Created with Sketch.</desc>
    <defs></defs>
    <g id="Page-1" stroke="none" stroke-width="1" fill="none" fill-rule="evenodd">
        <g id="Group" fill="#000000">
            <path d="M34.6786128,44.5714161 C34.6786128,42.9999857 34.2143265,42.1785561 33.285754,42.1785561 C32.750039,42.1785561 32.2143241,42.4285564 31.6786092,42.9642714 L31.6786092,53.7142842 C32.2143241,54.2499991 32.750039,54.4999994 33.285754,54.4999994 C34.2143265,54.4999994 34.6786128,53.7142842 34.6786128,52.1071394 L34.6786128,44.5714161 Z M46.7500557,44.6071305 C46.7500557,42.9999857 46.2143408,42.1785561 45.142911,42.1785561 C44.0714811,42.1785561 43.5357662,42.9999857 43.5357662,44.6071305 L43.5357662,46.2499896 L46.7500557,46.2499896 L46.7500557,44.6071305 Z M12.2500146,36.8214069 L12.2500146,57.1428597 L8.67858177,57.1428597 L8.67858177,36.8214069 L4.9285773,36.8214069 L4.9285773,33.46426 L16.0714477,33.46426 L16.0714477,36.8214069 L12.2500146,36.8214069 Z M22.5357412,57.1428597 L22.5357412,55.214286 C21.2500253,56.6785734 20.0357382,57.39286 18.8928797,57.39286 C17.8571641,57.39286 17.1071633,56.9642881 16.8214486,56.0714298 C16.642877,55.5357149 16.535734,54.7142854 16.535734,53.4642839 L16.535734,39.4999815 L19.7143092,39.4999815 L19.7143092,52.499997 C19.7143092,53.2499979 19.7143092,53.6428555 19.7500235,53.7499985 C19.8214522,54.2499991 20.0714525,54.4999994 20.5000244,54.4999994 C21.1428823,54.4999994 21.8214546,53.9999988 22.5357412,52.9999976 L22.5357412,39.4999815 L25.7143164,39.4999815 L25.7143164,57.1428597 L22.5357412,57.1428597 Z M37.857188,51.8571391 C37.857188,53.4999982 37.7857593,54.678571 37.535759,55.4285719 C37.1429014,56.7142878 36.2500432,57.39286 35.0000417,57.39286 C33.8571832,57.39286 32.750039,56.7500021 31.6786092,55.4285719 L31.6786092,57.1428597 L28.500034,57.1428597 L28.500034,33.46426 L31.6786092,33.46426 L31.6786092,41.2142693 C32.7143247,39.9285535 33.8214689,39.2856956 35.0000417,39.2856956 C36.2500432,39.2856956 37.1429014,39.9642678 37.535759,41.2856979 C37.7857593,41.9999845 37.857188,43.1785573 37.857188,44.8214164 L37.857188,51.8571391 Z M49.9286309,51.4999958 C49.9286309,52.5357113 49.9286309,53.2499979 49.8572023,53.5714269 C49.7857736,54.2857134 49.500059,54.9285713 49.1072014,55.5000006 C48.2500575,56.7500021 46.9286274,57.39286 45.2500539,57.39286 C43.5714805,57.39286 42.321479,56.7857164 41.3929065,55.5714293 C40.7143342,54.7142854 40.357191,53.3214266 40.357191,51.4285672 L40.357191,45.2499884 C40.357191,43.357129 40.6786199,41.9999845 41.3571922,41.1071263 C42.2857647,39.8928391 43.5357662,39.2856956 45.1786253,39.2856956 C46.7857701,39.2856956 48.0357715,39.8928391 48.9643441,41.1071263 C49.607202,41.9999845 49.9286309,43.357129 49.9286309,45.2499884 L49.9286309,48.9285642 L43.5357662,48.9285642 L43.5357662,52.0357108 C43.5357662,53.6785699 44.0714811,54.4999994 45.1786253,54.4999994 C45.9643405,54.4999994 46.4286268,54.0714275 46.6071984,53.2142836 C46.6429127,53.0357119 46.6786271,52.3214254 46.6786271,51.0357096 L49.9286309,51.0357096 L49.9286309,51.4999958 Z M28.2143193,18.8928141 C28.2143193,20.5356732 27.7500331,21.3928171 26.6786032,21.3928171 C25.6428877,21.3928171 25.1428871,20.5356732 25.1428871,18.8928141 L25.1428871,11.3928052 C25.1428871,9.74994606 25.6428877,8.92851651 26.6786032,8.92851651 C27.7500331,8.92851651 28.2143193,9.74994606 28.2143193,11.3928052 L28.2143193,18.8928141 Z M53.8929214,45.7142746 C53.8929214,41.5714126 53.8929214,37.2142645 52.9643489,33.2142597 C52.3214909,30.3928278 50.0000596,28.3213968 47.2500563,27.9999678 C40.6786199,27.2856812 34.0357549,27.2856812 27.4286041,27.2856812 C20.8214534,27.2856812 14.1785883,27.2856812 7.64286625,27.9999678 C4.85714865,28.3213968 2.57143164,30.3928278 1.8928594,33.2142597 C1.00000119,37.2142645 0.964286864,41.5714126 0.964286864,45.7142746 C0.964286864,49.8214224 0.964286864,54.2142848 1.8928594,58.2142895 C2.53571731,61.0357215 4.85714865,63.1071525 7.60715193,63.3928671 C14.1785883,64.142868 20.8214534,64.142868 27.4286041,64.142868 C34.0357549,64.142868 40.6786199,64.142868 47.2500563,63.3928671 C50.0000596,63.1071525 52.2857766,61.0357215 52.9643489,58.2142895 C53.8572071,54.2142848 53.8929214,49.8214224 53.8929214,45.7142746 Z M18.2500218,0.142791748 L15.8214474,9.53566009 L13.2857301,0.142791748 L9.50001132,0.142791748 C10.2500122,2.3570801 11.0357274,4.60708278 11.8214427,6.82137114 C12.9643012,10.1428037 13.6785877,12.6428066 14.0000167,14.3928087 L14.0000167,24.0713917 L17.5714495,24.0713917 L17.5714495,14.3928087 L21.8928832,0.142791748 L18.2500218,0.142791748 Z M31.4643232,12.0356631 C31.4643232,10.1428037 31.1428943,8.74994487 30.464322,7.85708666 C29.5714638,6.6427995 28.3214623,6.03565592 26.6786032,6.03565592 C25.0714585,6.03565592 23.821457,6.6427995 22.9285988,7.85708666 C22.2500265,8.74994487 21.9285976,10.1428037 21.9285976,12.0356631 L21.9285976,18.2856705 C21.9285976,20.1785299 22.2500265,21.5713887 22.9285988,22.4999613 C23.821457,23.7142484 25.0714585,24.321392 26.6786032,24.321392 C28.3214623,24.321392 29.5714638,23.7142484 30.464322,22.4999613 C31.1428943,21.607103 31.4643232,20.1785299 31.4643232,18.2856705 L31.4643232,12.0356631 Z M43.4286232,6.24994189 L40.1786193,6.24994189 L40.1786193,19.857101 C39.4643328,20.8928165 38.7857605,21.3928171 38.1429026,21.3928171 C37.7143307,21.3928171 37.4643304,21.1071025 37.3929017,20.6071019 C37.3571874,20.5356732 37.3571874,20.1071013 37.3571874,19.3571004 L37.3571874,6.24994189 L34.1071835,6.24994189 L34.1071835,20.3213872 C34.1071835,21.607103 34.2143265,22.4642469 34.3928981,22.9999619 C34.7143271,23.8928201 35.464328,24.321392 36.5000435,24.321392 C37.6786163,24.321392 38.8929035,23.6071054 40.1786193,22.1071036 L40.1786193,24.0713917 L43.4286232,24.0713917 L43.4286232,6.24994189 Z" id=""></path>
        </g>
    </g>
</svg>