<?xml version="1.0" encoding="UTF-8"?>
<svg width="26px" height="23px" viewBox="0 0 26 23" version="1.1" xmlns="http://www.w3.org/2000/svg" xmlns:xlink="http://www.w3.org/1999/xlink">
    <!-- Generator: Sketch 41.1 (35376) - http://www.bohemiancoding.com/sketch -->
    <title>Group 1804</title>
    <desc>Created with Sketch.</desc>
    <defs></defs>
    <g id="Page-1" stroke="none" stroke-width="1" fill="none" fill-rule="evenodd">
        <g id="Outline" transform="translate(-35.000000, -2473.000000)" fill="#8C9CA4">
            <g id="Group-1804" transform="translate(35.000000, 2473.000000)">
                <path d="M25.857,21.5 C25.857,22.33 25.186,23 24.357,23 C23.529,23 22.857,22.33 22.857,21.5 C22.857,20.67 23.529,20 24.357,20 C25.186,20 25.857,20.67 25.857,21.5" id="Fill-1800"></path>
                <path d="M6.857,21.5 C6.857,22.33 6.185,23 5.357,23 C4.529,23 3.857,22.33 3.857,21.5 C3.857,20.67 4.529,20 5.357,20 C6.185,20 6.857,20.67 6.857,21.5" id="Fill-1802"></path>
                <path d="M24.857,11.62 L8.857,13.5 C8.804,13.51 8.751,13.53 8.697,13.54 L5.064,3 L24.857,3 L24.857,11.62 Z M4.719,2 L4.029,0 L0.857,0 L0.857,1 L3.357,1 L7.787,13.791 C5.842,14.47 4.105,15.91 3.867,18 L3.867,19 L25.857,19 L25.857,18 L4.915,18 C5.196,16.1 7.017,14.96 8.857,14.5 L25.857,12.5 L25.857,2 L4.719,2 L4.719,2 Z" id="Fill-1803"></path>
            </g>
        </g>
    </g>
</svg>