<?xml version="1.0" encoding="UTF-8"?>
<svg width="26px" height="22px" viewBox="0 0 26 22" version="1.1" xmlns="http://www.w3.org/2000/svg" xmlns:xlink="http://www.w3.org/1999/xlink">
    <!-- Generator: Sketch 41.1 (35376) - http://www.bohemiancoding.com/sketch -->
    <title>Group 2198</title>
    <desc>Created with Sketch.</desc>
    <defs></defs>
    <g id="Page-1" stroke="none" stroke-width="1" fill="none" fill-rule="evenodd">
        <g id="Outline" transform="translate(-323.000000, -1511.000000)" fill="#8C9CA4">
            <g id="Group-2198" transform="translate(323.000000, 1511.000000)">
                <path d="M8.857,8.5 C8.857,9.33 8.186,10 7.357,10 C6.529,10 5.857,9.33 5.857,8.5 C5.857,7.67 6.529,7 7.357,7 C8.186,7 8.857,7.67 8.857,8.5" id="Fill-2193"></path>
                <path d="M14.857,8.5 C14.857,9.33 14.186,10 13.357,10 C12.529,10 11.857,9.33 11.857,8.5 C11.857,7.67 12.529,7 13.357,7 C14.186,7 14.857,7.67 14.857,8.5" id="Fill-2195"></path>
                <path d="M20.857,8.5 C20.857,9.33 20.186,10 19.357,10 C18.529,10 17.857,9.33 17.857,8.5 C17.857,7.67 18.529,7 19.357,7 C20.186,7 20.857,7.67 20.857,8.5" id="Fill-2196"></path>
                <path d="M23.857,0 L2.857,0 C1.753,0 0.857,0.9 0.857,2 L0.857,15 C0.857,16.101 1.753,17 2.857,17 L6.857,17 L6.857,22 L11.857,17 L23.857,17 C24.962,17 25.857,16.101 25.857,15 L25.857,2 C25.857,0.9 24.962,0 23.857,0 Z M23.857,1 C24.408,1 24.857,1.45 24.857,2 L24.857,15 C24.857,15.55 24.408,16 23.857,16 L11.443,16 L7.857,19.59 L7.857,16 L2.857,16 C2.307,16 1.857,15.55 1.857,15 L1.857,2 C1.857,1.45 2.307,1 2.857,1 L23.857,1 L23.857,1 Z" id="Fill-2197"></path>
            </g>
        </g>
    </g>
</svg>