<?xml version="1.0" encoding="UTF-8"?>
<svg width="25px" height="24px" viewBox="0 0 25 24" version="1.1" xmlns="http://www.w3.org/2000/svg" xmlns:xlink="http://www.w3.org/1999/xlink">
    <!-- Generator: Sketch 41.1 (35376) - http://www.bohemiancoding.com/sketch -->
    <title>Group 242</title>
    <desc>Created with Sketch.</desc>
    <defs></defs>
    <g id="Page-1" stroke="none" stroke-width="1" fill="none" fill-rule="evenodd">
        <g id="Outline" transform="translate(-36.000000, -6118.000000)" fill="#8C9CA4">
            <g id="Group-242" transform="translate(36.000000, 6118.000000)">
                <polyline id="Fill-239" points="12.857 12 6.857 12 6.857 13 13.857 13 13.857 4 12.857 4 12.857 12"></polyline>
                <path d="M12.857,0 C6.23,0 0.857,5.37 0.857,12 C0.857,18.63 6.23,24 12.857,24 C19.484,24 24.857,18.63 24.857,12 C24.857,5.37 19.484,0 12.857,0 Z M12.857,0.8 C19.033,0.8 24.058,5.82 24.058,12 C24.058,18.18 19.033,23.201 12.857,23.201 C6.682,23.201 1.657,18.18 1.657,12 C1.657,5.82 6.682,0.8 12.857,0.8 L12.857,0.8 Z" id="Fill-241"></path>
            </g>
        </g>
    </g>
</svg>