<?xml version="1.0" encoding="UTF-8"?>
<svg width="26px" height="25px" viewBox="0 0 26 25" version="1.1" xmlns="http://www.w3.org/2000/svg" xmlns:xlink="http://www.w3.org/1999/xlink">
    <!-- Generator: Sketch 41.1 (35376) - http://www.bohemiancoding.com/sketch -->
    <title>Group 415</title>
    <desc>Created with Sketch.</desc>
    <defs></defs>
    <g id="Page-1" stroke="none" stroke-width="1" fill="none" fill-rule="evenodd">
        <g id="Outline" transform="translate(-227.000000, -5638.000000)" fill="#8C9CA4">
            <g id="Group-415" transform="translate(227.000000, 5638.000000)">
                <path d="M16.11,6.831 L17.857,6.831 L17.857,4 L14.202,4 C12.355,4 10.857,5.49 10.857,7.34 L10.857,9 L8.857,9 L8.857,12.05 L10.857,12.05 L10.857,21 L14.857,21 L14.857,12.05 L17.857,12.05 L17.857,9 L14.857,9 L14.857,8.08 C14.857,7.39 15.419,6.831 16.11,6.831" id="Fill-412"></path>
                <path d="M13.357,0 C6.454,0 0.857,5.601 0.857,12.5 C0.857,19.4 6.454,25 13.357,25 C20.261,25 25.857,19.4 25.857,12.5 C25.857,5.601 20.261,0 13.357,0 Z M13.357,0.8 C19.809,0.8 25.058,6.05 25.058,12.5 C25.058,18.95 19.809,24.2 13.357,24.2 C6.906,24.2 1.657,18.95 1.657,12.5 C1.657,6.05 6.906,0.8 13.357,0.8 L13.357,0.8 Z" id="Fill-414"></path>
            </g>
        </g>
    </g>
</svg>