<?xml version="1.0" encoding="UTF-8"?>
<svg width="26px" height="25px" viewBox="0 0 26 25" version="1.1" xmlns="http://www.w3.org/2000/svg" xmlns:xlink="http://www.w3.org/1999/xlink">
    <!-- Generator: Sketch 41.1 (35376) - http://www.bohemiancoding.com/sketch -->
    <title>Group 371</title>
    <desc>Created with Sketch.</desc>
    <defs></defs>
    <g id="Page-1" stroke="none" stroke-width="1" fill="none" fill-rule="evenodd">
        <g id="Outline" transform="translate(-35.000000, -5734.000000)" fill="#8C9CA4">
            <g id="Group-371" transform="translate(35.000000, 5734.000000)">
                <path d="M19.127,20 L7.588,20 C6.632,20 5.857,19.23 5.857,18.27 L5.857,6.73 C5.857,5.77 6.632,5 7.588,5 L19.127,5 C20.083,5 20.857,5.77 20.857,6.73 L20.857,18.27 C20.857,19.23 20.083,20 19.127,20 L19.127,20 Z M13.357,9.621 C11.765,9.621 10.474,10.91 10.474,12.5 C10.474,14.09 11.765,15.38 13.357,15.38 C14.95,15.38 16.241,14.09 16.241,12.5 C16.241,10.91 14.95,9.621 13.357,9.621 L13.357,9.621 Z M19.127,7.311 C19.127,6.99 18.869,6.73 18.55,6.73 L16.82,6.73 C16.5,6.73 16.241,6.99 16.241,7.311 L16.241,9.04 C16.241,9.36 16.5,9.621 16.82,9.621 L18.55,9.621 C18.869,9.621 19.127,9.36 19.127,9.04 L19.127,7.311 Z M19.127,11.35 L17.821,11.35 C17.917,11.71 17.973,12.1 17.973,12.5 C17.973,15.05 15.906,17.121 13.357,17.121 C10.809,17.121 8.741,15.05 8.741,12.5 C8.741,12.1 8.799,11.71 8.894,11.35 L7.588,11.35 L7.588,17.69 C7.588,18.01 7.846,18.27 8.165,18.27 L18.55,18.27 C18.869,18.27 19.127,18.01 19.127,17.69 L19.127,11.35 L19.127,11.35 Z" id="Fill-368"></path>
                <path d="M13.357,0 C6.454,0 0.857,5.601 0.857,12.5 C0.857,19.4 6.454,25 13.357,25 C20.261,25 25.857,19.4 25.857,12.5 C25.857,5.601 20.261,0 13.357,0 Z M13.357,0.8 C19.809,0.8 25.058,6.05 25.058,12.5 C25.058,18.95 19.809,24.2 13.357,24.2 C6.906,24.2 1.657,18.95 1.657,12.5 C1.657,6.05 6.906,0.8 13.357,0.8 L13.357,0.8 Z" id="Fill-370"></path>
            </g>
        </g>
    </g>
</svg>