<?xml version="1.0" encoding="UTF-8"?>
<svg width="328px" height="38px" viewBox="0 0 328 38" version="1.1" xmlns="http://www.w3.org/2000/svg" xmlns:xlink="http://www.w3.org/1999/xlink">
    <!-- Generator: Sketch 41.1 (35376) - http://www.bohemiancoding.com/sketch -->
    <title>Group 2</title>
    <desc>Created with Sketch.</desc>
    <defs></defs>
    <g id="Page-1" stroke="none" stroke-width="1" fill="none" fill-rule="evenodd">
        <g id="Group-2" transform="translate(0.000000, -6.000000)" fill="#8C9CA4">
            <g id="Group" transform="translate(0.000000, 6.000000)">
                <g id="Group-821">
                    <path d="M18.9147923,0 C8.48598462,0 0.0296274725,8.50074074 0.0296274725,19 C0.0296274725,29.4992593 8.48598462,38 18.9147923,38 C29.3449989,38 37.7999571,29.4992593 37.7999571,19 C37.7999571,8.50074074 29.3449989,0 18.9147923,0 Z M18.9147923,1.12592593 C28.7112967,1.12592593 36.6822352,9.14814815 36.6822352,19 C36.6822352,28.8518519 28.7112967,36.8740741 18.9147923,36.8740741 C9.11828791,36.8740741 1.14874835,28.8518519 1.14874835,19 C1.14874835,9.14814815 9.11828791,1.12592593 18.9147923,1.12592593 L18.9147923,1.12592593 Z" id="Fill-811"></path>
                    <path d="M7.20179341,9.64074074 L14.4956637,16.8888889 L4.06545714,16.8888889 C4.44595824,14.257037 5.51611758,11.7377778 7.20179341,9.64074074 Z M3.39118681,18.2962963 L17.5158912,18.2962963 L7.59768242,8.44444444 L6.75134725,8.44444444 C4.54108352,10.9777778 3.10860879,14.1866667 2.82742967,17.7333333 L3.39118681,18.2962963 L3.39118681,18.2962963 Z" id="Fill-813"></path>
                    <path d="M16.8164407,14.1036296 L9.82333407,7.03703704 C11.8657297,5.44666667 14.2844297,4.43333333 16.8164407,4.06740741 L16.8164407,14.1036296 Z M17.4221648,2.81481481 C14.1515341,3.12444444 11.1774703,4.44740741 8.77275934,6.44592593 L8.77275934,7.55777778 L18.2153418,16.8888889 L18.2153418,3.61703704 L17.4221648,2.81481481 L17.4221648,2.81481481 Z" id="Fill-814"></path>
                    <path d="M4.06545714,21.1111111 L14.4956637,21.1111111 L7.20179341,28.3592593 C5.51611758,26.2622222 4.44595824,23.757037 4.06545714,21.1111111 Z M2.82742967,20.2666667 C3.10860879,23.8133333 4.54108352,27.0222222 6.75134725,29.5555556 L7.59768242,29.5555556 L17.5158912,19.7037037 L3.39118681,19.7037037 L2.82742967,20.2666667 L2.82742967,20.2666667 Z" id="Fill-815"></path>
                    <path d="M16.8164407,33.9325926 C14.2844297,33.5666667 11.8657297,32.5533333 9.82333407,30.962963 L16.8164407,23.8977778 L16.8164407,33.9325926 Z M18.2153418,34.382963 L18.2153418,21.1111111 L8.77275934,30.4422222 L8.77275934,31.5540741 C11.1774703,33.5525926 14.1515341,34.8755556 17.4221648,35.1851852 L18.2153418,34.382963 L18.2153418,34.382963 Z" id="Fill-816"></path>
                    <path d="M33.7655264,16.8888889 L23.3353198,16.8888889 L30.6277912,9.64074074 C32.3148659,11.7377778 33.3850253,14.257037 33.7655264,16.8888889 Z M35.0021549,17.7333333 C34.7223747,14.1866667 33.2899,10.9777778 31.0796363,8.44444444 L30.2333011,8.44444444 L20.3136934,18.2962963 L34.4397967,18.2962963 L35.0021549,17.7333333 L35.0021549,17.7333333 Z" id="Fill-817"></path>
                    <path d="M21.013144,4.06740741 C23.5465538,4.43333333 25.9638549,5.44666667 28.0062505,7.03703704 L21.013144,14.1036296 L21.013144,4.06740741 Z M19.6142429,3.61703704 L19.6142429,16.8888889 L29.0568253,7.55777778 L29.0568253,6.44592593 C26.6535132,4.44740741 23.6794495,3.12444444 20.4088187,2.81481481 L19.6142429,3.61703704 L19.6142429,3.61703704 Z" id="Fill-818"></path>
                    <path d="M30.6277912,28.3592593 L23.3353198,21.1111111 L33.7655264,21.1111111 C33.3850253,23.742963 32.3148659,26.2622222 30.6277912,28.3592593 Z M34.4397967,19.7037037 L20.3136934,19.7037037 L30.2333011,29.5555556 L31.0796363,29.5555556 C33.2899,27.0222222 34.7223747,23.8133333 35.0021549,20.2666667 L34.4397967,19.7037037 L34.4397967,19.7037037 Z" id="Fill-819"></path>
                    <path d="M21.013144,23.8977778 L28.0062505,30.962963 C25.9638549,32.5533333 23.5465538,33.5666667 21.013144,33.9325926 L21.013144,23.8977778 Z M20.4088187,35.1851852 C23.6794495,34.8755556 26.6535132,33.5525926 29.0568253,31.5540741 L29.0568253,30.4422222 L19.6142429,21.1111111 L19.6142429,34.382963 L20.4088187,35.1851852 L20.4088187,35.1851852 Z" id="Fill-820"></path>
                </g>
            </g>
            <text id="M-A-N-H-A-T-T-A-N" font-family="CrimsonText-Roman, Crimson Text" font-size="36" font-weight="normal" letter-spacing="-1.125">
                <tspan x="56" y="36">M A N H A T T A N</tspan>
            </text>
        </g>
    </g>
</svg>