<?xml version="1.0" encoding="UTF-8"?>
<svg width="17px" height="27px" viewBox="0 0 17 27" version="1.1" xmlns="http://www.w3.org/2000/svg" xmlns:xlink="http://www.w3.org/1999/xlink">
    <!-- Generator: Sketch 41.1 (35376) - http://www.bohemiancoding.com/sketch -->
    <title>Group 2536</title>
    <desc>Created with Sketch.</desc>
    <defs></defs>
    <g id="Page-1" stroke="none" stroke-width="1" fill="none" fill-rule="evenodd">
        <g id="Outline" transform="translate(-424.000000, -933.000000)" fill="#8C9CA4">
            <g id="Group-2536" transform="translate(424.000000, 933.000000)">
                <path d="M15.857,25 C15.857,25.552 15.396,26 14.857,26 L2.857,26 C2.318,26 1.857,25.552 1.857,25 L1.857,2 C1.857,1.448 2.318,1 2.857,1 L14.857,1 C15.396,1 15.857,1.448 15.857,2 L15.857,25 Z M14.857,0 L2.857,0 C1.775,0 0.857,0.896 0.857,2 L0.857,25 C0.857,26.104 1.775,27 2.857,27 L14.857,27 C15.939,27 16.857,26.104 16.857,25 L16.857,2 C16.857,0.896 15.939,0 14.857,0 L14.857,0 Z" id="Fill-2530"></path>
                <path d="M3.857,22 L13.857,22 L13.857,5 L3.857,5 L3.857,22 Z M2.857,23 L14.857,23 L14.857,4 L2.857,4 L2.857,23 Z" id="Fill-2532"></path>
                <polygon id="Fill-2533" points="7.857 25 9.857 25 9.857 24 7.857 24"></polygon>
                <polygon id="Fill-2534" points="5.857 3 6.857 3 6.857 2 5.857 2"></polygon>
                <polygon id="Fill-2535" points="7.857 3 11.857 3 11.857 2 7.857 2"></polygon>
            </g>
        </g>
    </g>
</svg>