<?xml version="1.0" encoding="UTF-8"?>
<svg width="26px" height="25px" viewBox="0 0 26 25" version="1.1" xmlns="http://www.w3.org/2000/svg" xmlns:xlink="http://www.w3.org/1999/xlink">
    <!-- Generator: Sketch 41.1 (35376) - http://www.bohemiancoding.com/sketch -->
    <title>Group 411</title>
    <desc>Created with Sketch.</desc>
    <defs></defs>
    <g id="Page-1" stroke="none" stroke-width="1" fill="none" fill-rule="evenodd">
        <g id="Outline" transform="translate(-324.000000, -5638.000000)" fill="#8C9CA4">
            <g id="Group-411" transform="translate(324.000000, 5638.000000)">
                <path d="M8.259,23.38 C8.793,23.63 9.346,23.84 9.918,24 C10.329,23.31 10.742,22.5 10.969,21.68 C11.121,21.13 11.84,18.27 11.84,18.27 C12.271,19.09 13.527,19.82 14.865,19.82 C18.846,19.82 21.547,16.19 21.547,11.331 C21.547,7.661 18.436,4.241 13.707,4.241 C7.824,4.241 4.857,8.45 4.857,11.97 C4.857,14.1 5.663,16 7.395,16.7 C7.677,16.82 7.931,16.71 8.014,16.39 C8.07,16.17 8.207,15.63 8.266,15.4 C8.348,15.09 8.316,14.98 8.088,14.71 C7.59,14.121 7.271,13.36 7.271,12.28 C7.271,9.15 9.611,6.351 13.368,6.351 C16.691,6.351 18.52,8.38 18.52,11.09 C18.52,14.67 16.939,17.681 14.594,17.681 C13.297,17.681 12.328,16.61 12.64,15.291 C13.011,13.721 13.732,12.03 13.732,10.9 C13.732,9.891 13.189,9.04 12.063,9.04 C10.738,9.04 9.674,10.41 9.674,12.25 C9.674,13.41 10.069,14.201 10.069,14.201 C10.069,14.201 8.715,19.95 8.477,20.951 C8.289,21.75 8.248,22.61 8.259,23.38" id="Fill-408"></path>
                <path d="M13.357,0 C6.454,0 0.857,5.601 0.857,12.5 C0.857,19.4 6.454,25 13.357,25 C20.261,25 25.857,19.4 25.857,12.5 C25.857,5.601 20.261,0 13.357,0 Z M13.357,0.8 C19.809,0.8 25.058,6.05 25.058,12.5 C25.058,18.95 19.809,24.2 13.357,24.2 C6.906,24.2 1.657,18.95 1.657,12.5 C1.657,6.05 6.906,0.8 13.357,0.8 L13.357,0.8 Z" id="Fill-410"></path>
            </g>
        </g>
    </g>
</svg>