<?xml version="1.0" encoding="UTF-8"?>
<svg width="26px" height="24px" viewBox="0 0 26 24" version="1.1" xmlns="http://www.w3.org/2000/svg" xmlns:xlink="http://www.w3.org/1999/xlink">
    <!-- Generator: Sketch 41.1 (35376) - http://www.bohemiancoding.com/sketch -->
    <title>Group</title>
    <desc>Created with Sketch.</desc>
    <defs></defs>
    <g id="Page-1" stroke="none" stroke-width="1" fill="none" fill-rule="evenodd">
        <g id="Outline" transform="translate(-227.000000, -6022.000000)" fill="#8C9CA4">
            <g id="Group" transform="translate(227.000000, 6022.000000)">
                <path d="M10.357,18.2 C5.553,18.2 1.657,14.3 1.657,9.5 C1.657,4.7 5.553,0.8 10.357,0.8 C15.162,0.8 19.058,4.7 19.058,9.5 C19.058,14.3 15.162,18.2 10.357,18.2 Z M17.85,15.33 C19.104,13.721 19.857,11.7 19.857,9.5 C19.857,4.25 15.604,0 10.357,0 C5.111,0 0.857,4.25 0.857,9.5 C0.857,14.75 5.111,19 10.357,19 C12.685,19 14.813,18.161 16.465,16.77 L23.739,24 L25.153,22.63 L17.85,15.33 L17.85,15.33 Z" id="Fill-261"></path>
            </g>
        </g>
    </g>
</svg>