<?xml version="1.0" encoding="UTF-8"?>
<svg width="26px" height="25px" viewBox="0 0 26 25" version="1.1" xmlns="http://www.w3.org/2000/svg" xmlns:xlink="http://www.w3.org/1999/xlink">
    <!-- Generator: Sketch 41.1 (35376) - http://www.bohemiancoding.com/sketch -->
    <title>Group 2854</title>
    <desc>Created with Sketch.</desc>
    <defs></defs>
    <g id="Page-1" stroke="none" stroke-width="1" fill="none" fill-rule="evenodd">
        <g id="Outline" transform="translate(-131.000000, -166.000000)" fill="#8C9CA4">
            <g id="Group-2854" transform="translate(131.000000, 166.000000)">
                <path d="M13.857,0 L12.357,0 C11.517,0 10.857,0.659 10.857,1.5 L10.857,2.5 C10.857,3.359 10.107,4.086 9.219,4.086 C8.778,4.086 8.355,3.897 8.04,3.55 L7.423,2.934 C7.133,2.643 6.735,2.498 6.338,2.498 C5.939,2.498 5.542,2.643 5.253,2.934 L3.789,4.396 C3.191,4.993 3.191,5.966 3.789,6.565 L4.425,7.199 C4.759,7.502 4.943,7.915 4.943,8.362 C4.943,9.25 4.217,10 3.357,10 L2.357,10 C1.517,10 0.857,10.659 0.857,11.5 L0.857,13.5 C0.857,14.341 1.517,15 2.357,15 L3.357,15 C4.217,15 4.943,15.75 4.943,16.638 C4.943,17.079 4.755,17.503 4.407,17.817 L3.789,18.436 C3.191,19.034 3.191,20.007 3.789,20.604 L5.253,22.067 C5.542,22.357 5.939,22.503 6.338,22.503 C6.735,22.503 7.133,22.357 7.423,22.067 L8.057,21.434 C8.354,21.104 8.778,20.914 9.219,20.914 C10.107,20.914 10.857,21.642 10.857,22.5 L10.857,23.5 C10.857,24.341 11.517,25 12.357,25 L14.357,25 C15.198,25 15.857,24.341 15.857,23.5 L15.857,22.5 C15.857,21.642 16.607,20.914 17.496,20.914 C17.937,20.914 18.359,21.104 18.675,21.45 L19.292,22.067 C19.582,22.357 19.98,22.503 20.378,22.503 C20.775,22.503 21.173,22.357 21.463,22.067 L22.926,20.604 C23.523,20.007 23.523,19.034 22.926,18.436 L22.29,17.801 C21.956,17.498 21.771,17.085 21.771,16.638 C21.771,15.75 22.498,15 23.357,15 L24.357,15 C25.198,15 25.857,14.341 25.857,13.5 L25.857,11.5 C25.857,10.659 25.198,10 24.357,10 L23.357,10 C22.498,10 21.771,9.25 21.771,8.362 C21.771,7.921 21.96,7.497 22.308,7.184 L22.926,6.565 C23.523,5.966 23.523,4.993 22.926,4.396 L21.463,2.934 C21.173,2.643 20.775,2.498 20.378,2.498 C19.98,2.498 19.582,2.643 19.292,2.934 L18.658,3.567 C18.36,3.896 17.937,4.086 17.496,4.086 C16.582,4.086 15.357,3.302 15.357,2.5 L15.357,1.5 C15.357,0.659 14.698,0 13.857,0 Z M13.857,0.8 C14.256,0.8 14.558,1.102 14.558,1.5 L14.558,2.5 C14.558,3.785 16.174,4.887 17.496,4.887 C18.162,4.887 18.802,4.603 19.225,4.133 L19.857,3.499 C19.984,3.371 20.175,3.298 20.378,3.298 C20.58,3.298 20.77,3.371 20.896,3.498 L22.36,4.961 C22.646,5.247 22.646,5.713 22.36,6 L21.771,6.59 C21.256,7.056 20.972,7.687 20.972,8.362 C20.972,9.685 22.064,10.8 23.357,10.8 L24.357,10.8 C24.756,10.8 25.058,11.103 25.058,11.5 L25.058,13.5 C25.058,13.898 24.756,14.2 24.357,14.2 L23.357,14.2 C22.064,14.2 20.972,15.316 20.972,16.638 C20.972,17.313 21.249,17.938 21.725,18.367 L22.359,19 C22.646,19.287 22.646,19.753 22.359,20.039 L20.896,21.502 C20.77,21.63 20.58,21.703 20.378,21.703 C20.176,21.703 19.985,21.629 19.857,21.502 L19.268,20.912 C18.8,20.397 18.171,20.114 17.496,20.114 C16.174,20.114 15.058,21.207 15.058,22.5 L15.058,23.5 C15.058,23.898 14.756,24.2 14.357,24.2 L12.357,24.2 C11.959,24.2 11.657,23.898 11.657,23.5 L11.657,22.5 C11.657,21.207 10.541,20.114 9.219,20.114 C8.553,20.114 7.913,20.398 7.49,20.867 L6.856,21.502 C6.729,21.63 6.54,21.703 6.338,21.703 C6.135,21.703 5.946,21.63 5.818,21.502 L4.354,20.039 C4.068,19.753 4.069,19.287 4.354,19 L4.943,18.41 C5.459,17.944 5.743,17.314 5.743,16.638 C5.743,15.316 4.65,14.2 3.357,14.2 L2.357,14.2 C1.959,14.2 1.657,13.898 1.657,13.5 L1.657,11.5 C1.657,11.103 1.959,10.8 2.357,10.8 L3.357,10.8 C4.65,10.8 5.743,9.685 5.743,8.362 C5.743,7.687 5.466,7.063 4.99,6.633 L4.355,6 C4.069,5.713 4.068,5.247 4.354,4.961 L5.819,3.498 C5.945,3.371 6.135,3.298 6.338,3.298 C6.541,3.298 6.73,3.371 6.857,3.498 L7.447,4.088 C7.915,4.604 8.544,4.887 9.219,4.887 C10.541,4.887 11.657,3.793 11.657,2.5 L11.657,1.5 C11.657,1.102 11.959,0.8 12.357,0.8 L13.857,0.8 L13.857,0.8 Z" id="Fill-2851"></path>
                <path d="M13.357,7 C10.319,7 7.857,9.463 7.857,12.5 C7.857,15.537 10.319,18 13.357,18 C16.396,18 18.857,15.537 18.857,12.5 C18.857,9.463 16.396,7 13.357,7 Z M13.357,7.8 C15.949,7.8 18.058,9.908 18.058,12.5 C18.058,15.092 15.949,17.2 13.357,17.2 C10.766,17.2 8.657,15.092 8.657,12.5 C8.657,9.908 10.766,7.8 13.357,7.8 L13.357,7.8 Z" id="Fill-2853"></path>
            </g>
        </g>
    </g>
</svg>