<?xml version="1.0" encoding="UTF-8"?>
<svg width="26px" height="25px" viewBox="0 0 26 25" version="1.1" xmlns="http://www.w3.org/2000/svg" xmlns:xlink="http://www.w3.org/1999/xlink">
    <!-- Generator: Sketch 41.1 (35376) - http://www.bohemiancoding.com/sketch -->
    <title>Group 419</title>
    <desc>Created with Sketch.</desc>
    <defs></defs>
    <g id="Page-1" stroke="none" stroke-width="1" fill="none" fill-rule="evenodd">
        <g id="Outline" transform="translate(-131.000000, -5638.000000)" fill="#8C9CA4">
            <g id="Group-419" transform="translate(131.000000, 5638.000000)">
                <path d="M22.088,7.661 C21.455,7.94 20.772,8.13 20.057,8.21 C20.787,7.78 21.348,7.08 21.612,6.26 C20.93,6.66 20.173,6.96 19.367,7.12 C18.722,6.431 17.804,6 16.787,6 C14.834,6 13.251,7.581 13.251,9.54 C13.251,9.81 13.283,10.08 13.344,10.34 C10.405,10.19 7.8,8.79 6.057,6.65 C5.753,7.17 5.579,7.78 5.579,8.42 C5.579,9.65 6.201,10.73 7.151,11.37 C6.572,11.35 6.026,11.19 5.549,10.92 L5.549,10.97 C5.549,12.68 6.768,14.11 8.385,14.43 C8.088,14.51 7.775,14.56 7.455,14.56 C7.227,14.56 7.005,14.541 6.789,14.5 C7.239,15.9 8.545,16.92 10.091,16.95 C8.881,17.9 7.357,18.46 5.701,18.46 C5.415,18.46 5.133,18.45 4.857,18.41 C6.421,19.41 8.279,20 10.276,20 C16.779,20 20.335,14.62 20.335,9.94 C20.335,9.79 20.33,9.64 20.324,9.491 C21.016,8.99 21.614,8.37 22.088,7.661" id="Fill-416"></path>
                <path d="M13.357,0 C6.454,0 0.857,5.601 0.857,12.5 C0.857,19.4 6.454,25 13.357,25 C20.261,25 25.857,19.4 25.857,12.5 C25.857,5.601 20.261,0 13.357,0 Z M13.357,0.8 C19.809,0.8 25.058,6.05 25.058,12.5 C25.058,18.95 19.809,24.2 13.357,24.2 C6.906,24.2 1.657,18.95 1.657,12.5 C1.657,6.05 6.906,0.8 13.357,0.8 L13.357,0.8 Z" id="Fill-418"></path>
            </g>
        </g>
    </g>
</svg>