<?xml version="1.0" encoding="UTF-8"?>
<svg width="24px" height="27px" viewBox="0 0 24 27" version="1.1" xmlns="http://www.w3.org/2000/svg" xmlns:xlink="http://www.w3.org/1999/xlink">
    <!-- Generator: Sketch 41.1 (35376) - http://www.bohemiancoding.com/sketch -->
    <title>Group 4</title>
    <desc>Created with Sketch.</desc>
    <defs></defs>
    <g id="Page-1" stroke="none" stroke-width="1" fill="none" fill-rule="evenodd">
        <g id="Outline" transform="translate(-324.000000, -261.000000)" fill="#8C9CA4">
            <g id="Group-4" transform="translate(324.000000, 261.000000)">
                <path d="M22.857,7 L22.84,7 L12.358,13.027 L1.875,7 L1.857,7 L1.857,6.973 L12.358,0.924 L22.857,6.973 L22.857,7 Z M22.857,20.039 L12.857,25.79 L12.857,13.663 L22.857,7.912 L22.857,20.039 Z M1.857,7.912 L11.857,13.662 L11.857,25.789 L1.857,20.039 L1.857,7.912 Z M12.358,0 L0.857,6.626 L0.857,20.387 L12.358,27 L23.857,20.387 L23.857,6.626 L12.358,0 L12.358,0 Z" id="Fill-2806"></path>
            </g>
        </g>
    </g>
</svg>