<?xml version="1.0" encoding="UTF-8"?>
<svg width="26px" height="25px" viewBox="0 0 26 25" version="1.1" xmlns="http://www.w3.org/2000/svg" xmlns:xlink="http://www.w3.org/1999/xlink">
    <!-- Generator: Sketch 41.1 (35376) - http://www.bohemiancoding.com/sketch -->
    <title>Group 2</title>
    <desc>Created with Sketch.</desc>
    <defs></defs>
    <g id="Page-1" stroke="none" stroke-width="1" fill="none" fill-rule="evenodd">
        <g id="Outline" transform="translate(-707.000000, -6022.000000)" fill="#8C9CA4">
            <g id="Group-2" transform="translate(707.000000, 6022.000000)">
                <path d="M21.356,21.021 C21.192,20.94 21.033,20.86 20.865,20.79 C20.85,20.8 20.836,20.82 20.818,20.83 C20.543,20.7 20.008,20.46 19.34,20.23 C18.768,20.05 18.182,19.89 17.574,19.76 C17.578,19.76 17.58,19.75 17.582,19.75 C16.984,19.63 16.537,19.56 16.537,19.56 C16.537,19.56 16.287,18.79 16.203,17.92 C16.121,17.04 16.254,16.54 16.254,16.54 C16.254,16.54 16.787,16.25 16.975,15.92 C17.162,15.58 17.287,13.56 17.287,13.56 L17.975,13.23 L18.434,11.26 L18.434,10.46 L17.975,9.94 C17.975,9.94 18.225,8.811 18.225,7.56 C18.225,6.31 17.934,5.19 17.934,5.19 C17.934,5.19 16.828,4 15.725,3.5 C14.621,3 13.537,3 13.537,3 C13.537,3 13.471,3 13.357,3.01 C13.244,3 13.178,3 13.178,3 C13.178,3 12.094,3 10.99,3.5 C9.887,4 8.781,5.19 8.781,5.19 C8.781,5.19 8.49,6.31 8.49,7.56 C8.49,8.811 8.74,9.94 8.74,9.94 L8.281,10.46 L8.281,11.26 L8.74,13.23 L9.428,13.56 C9.428,13.56 9.553,15.58 9.74,15.92 C9.928,16.25 10.461,16.54 10.461,16.54 C10.461,16.54 10.594,17.04 10.512,17.92 C10.428,18.79 10.178,19.56 10.178,19.56 C10.178,19.56 9.73,19.63 9.133,19.75 C9.135,19.75 9.137,19.76 9.141,19.76 C8.533,19.89 7.947,20.05 7.375,20.23 C6.707,20.46 6.172,20.7 5.896,20.83 C5.879,20.82 5.865,20.8 5.85,20.79 C5.682,20.86 5.522,20.94 5.358,21.021 C3.086,18.88 1.657,15.86 1.657,12.5 C1.657,6.05 6.906,0.8 13.357,0.8 C19.809,0.8 25.058,6.05 25.058,12.5 C25.058,15.86 23.629,18.88 21.356,21.021 Z M13.357,0 C6.454,0 0.857,5.601 0.857,12.5 C0.857,19.4 6.454,25 13.357,25 C20.261,25 25.857,19.4 25.857,12.5 C25.857,5.601 20.261,0 13.357,0 L13.357,0 Z" id="Fill-249"></path>
            </g>
        </g>
    </g>
</svg>