<?xml version="1.0" encoding="UTF-8"?>
<svg width="26px" height="25px" viewBox="0 0 26 25" version="1.1" xmlns="http://www.w3.org/2000/svg" xmlns:xlink="http://www.w3.org/1999/xlink">
    <!-- Generator: Sketch 41.1 (35376) - http://www.bohemiancoding.com/sketch -->
    <title>Group 407</title>
    <desc>Created with Sketch.</desc>
    <defs></defs>
    <g id="Page-1" stroke="none" stroke-width="1" fill="none" fill-rule="evenodd">
        <g id="Outline" transform="translate(-420.000000, -5638.000000)" fill="#8C9CA4">
            <g id="Group-407" transform="translate(420.000000, 5638.000000)">
                <polyline id="Fill-399" points="7.148 3 8.424 3 9.244 6.221 9.323 6.221 10.107 3 11.393 3 9.92 7.71 9.92 11.05 8.654 11.05 8.654 7.86 7.148 3"></polyline>
                <path d="M12.492,9.66 C12.492,9.82 12.531,9.95 12.611,10.041 C12.691,10.13 12.806,10.17 12.954,10.17 C13.107,10.17 13.228,10.13 13.318,10.041 C13.407,9.95 13.452,9.82 13.452,9.66 L13.452,6.42 C13.452,6.291 13.406,6.19 13.316,6.11 C13.224,6.03 13.103,5.99 12.954,5.99 C12.818,5.99 12.706,6.03 12.619,6.11 C12.534,6.19 12.492,6.291 12.492,6.42 L12.492,9.66 Z M11.336,6.47 C11.336,6.01 11.487,5.64 11.789,5.37 C12.092,5.1 12.498,4.96 13.009,4.96 C13.475,4.96 13.855,5.11 14.152,5.391 C14.449,5.681 14.597,6.05 14.597,6.5 L14.597,9.57 C14.597,10.08 14.451,10.48 14.161,10.77 C13.87,11.061 13.47,11.201 12.957,11.201 C12.466,11.201 12.072,11.05 11.777,10.75 C11.482,10.46 11.336,10.05 11.336,9.55 L11.336,6.47 L11.336,6.47 Z" id="Fill-401"></path>
                <path d="M18.761,5.11 L18.761,11.05 L17.636,11.05 L17.636,10.4 C17.429,10.641 17.214,10.82 16.989,10.95 C16.766,11.07 16.549,11.14 16.337,11.14 C16.077,11.14 15.882,11.05 15.75,10.87 C15.618,10.7 15.551,10.43 15.551,10.08 L15.551,5.11 L16.676,5.11 L16.676,9.66 C16.676,9.81 16.699,9.911 16.747,9.971 C16.793,10.03 16.87,10.06 16.976,10.06 C17.058,10.06 17.162,10.02 17.288,9.94 C17.415,9.86 17.53,9.75 17.636,9.621 L17.636,5.11 L18.761,5.11" id="Fill-402"></path>
                <path d="M14.938,16.09 C14.873,16.09 14.81,16.11 14.745,16.14 C14.682,16.17 14.62,16.22 14.558,16.29 L14.558,19.28 C14.632,19.36 14.702,19.42 14.772,19.451 C14.843,19.49 14.916,19.5 14.993,19.5 C15.104,19.5 15.187,19.47 15.237,19.4 C15.29,19.34 15.317,19.23 15.317,19.07 L15.317,16.59 C15.317,16.43 15.285,16.3 15.219,16.22 C15.155,16.14 15.061,16.09 14.938,16.09" id="Fill-403"></path>
                <path d="M18.283,16.11 C18.139,16.11 18.034,16.16 17.972,16.241 C17.907,16.33 17.877,16.47 17.877,16.67 L17.877,17.16 L18.682,17.16 L18.682,16.67 C18.682,16.47 18.648,16.33 18.586,16.241 C18.522,16.16 18.423,16.11 18.283,16.11" id="Fill-404"></path>
                <path d="M19.618,17.91 L17.877,17.91 L17.877,18.81 C17.877,19.07 17.906,19.241 17.967,19.34 C18.026,19.44 18.129,19.49 18.274,19.49 C18.425,19.49 18.529,19.451 18.59,19.36 C18.651,19.28 18.682,19.101 18.682,18.81 L18.682,18.48 L19.618,18.48 L19.618,18.84 C19.618,19.34 19.503,19.71 19.275,19.96 C19.047,20.21 18.706,20.331 18.253,20.331 C17.846,20.331 17.525,20.201 17.291,19.931 C17.057,19.67 16.94,19.3 16.94,18.84 L16.94,16.68 C16.94,16.27 17.068,15.93 17.325,15.66 C17.582,15.4 17.915,15.27 18.321,15.27 C18.739,15.27 19.059,15.39 19.282,15.63 C19.505,15.88 19.618,16.23 19.618,16.68 L19.618,17.91 Z M16.253,19.2 C16.253,19.54 16.183,19.81 16.04,19.991 C15.897,20.17 15.691,20.26 15.422,20.26 C15.244,20.26 15.084,20.22 14.946,20.16 C14.807,20.08 14.677,19.98 14.558,19.83 L14.558,20.201 L13.638,20.201 L13.638,13.68 L14.558,13.68 L14.558,15.78 C14.679,15.63 14.812,15.52 14.948,15.45 C15.086,15.37 15.225,15.33 15.367,15.33 C15.655,15.33 15.875,15.431 16.026,15.64 C16.178,15.84 16.253,16.14 16.253,16.54 L16.253,19.2 Z M12.752,20.201 L11.841,20.201 L11.841,19.67 C11.673,19.86 11.499,20.01 11.316,20.121 C11.136,20.22 10.959,20.271 10.79,20.271 C10.579,20.271 10.42,20.201 10.313,20.05 C10.207,19.91 10.154,19.7 10.154,19.41 L10.154,15.39 L11.063,15.39 L11.063,19.08 C11.063,19.19 11.083,19.27 11.119,19.32 C11.157,19.38 11.22,19.4 11.306,19.4 C11.372,19.4 11.457,19.371 11.559,19.3 C11.662,19.23 11.756,19.15 11.841,19.041 L11.841,15.39 L12.752,15.39 L12.752,20.201 Z M9.104,20.201 L8.08,20.201 L8.08,14.63 L7.02,14.63 L7.02,13.68 L10.165,13.68 L10.165,14.63 L9.104,14.63 L9.104,20.201 Z M20.758,14.28 C20.758,13.12 19.785,12.18 18.591,12.18 C16.884,12.11 15.138,12.081 13.357,12.081 C11.577,12.081 9.831,12.11 8.124,12.18 C6.93,12.18 5.959,13.12 5.959,14.28 C5.887,15.2 5.855,16.12 5.857,17.04 C5.855,17.96 5.887,18.88 5.959,19.8 C5.959,20.96 6.93,21.9 8.124,21.9 C9.831,21.971 11.577,22 13.357,22 C15.138,22 16.884,21.971 18.591,21.9 C19.785,21.9 20.758,20.96 20.758,19.8 C20.828,18.88 20.859,17.96 20.857,17.04 C20.859,16.12 20.828,15.2 20.758,14.28 L20.758,14.28 Z" id="Fill-405"></path>
                <path d="M13.357,0 C6.454,0 0.857,5.601 0.857,12.5 C0.857,19.4 6.454,25 13.357,25 C20.261,25 25.857,19.4 25.857,12.5 C25.857,5.601 20.261,0 13.357,0 Z M13.357,0.8 C19.809,0.8 25.058,6.05 25.058,12.5 C25.058,18.95 19.809,24.2 13.357,24.2 C6.906,24.2 1.657,18.95 1.657,12.5 C1.657,6.05 6.906,0.8 13.357,0.8 L13.357,0.8 Z" id="Fill-406"></path>
            </g>
        </g>
    </g>
</svg>